<?xml version="1.0" encoding="UTF-8"?>
<svg xmlns="http://www.w3.org/2000/svg" xmlns:xlink="http://www.w3.org/1999/xlink" width="576pt" height="494.999988pt" viewBox="0 0 576 494.999988" version="1.2">
<g id="surface1">
<path style=" stroke:none;fill-rule:nonzero;fill:rgb(85.099792%,85.099792%,85.099792%);fill-opacity:1;" d="M 463.152344 274.363281 C 464.824219 273.410156 466.257812 272.457031 467.929688 271.5 C 470.320312 263.152344 468.40625 252.894531 462.914062 243.828125 C 462.914062 243.828125 404.144531 138.386719 398.414062 134.089844 C 385.75 124.546875 367.835938 126.933594 358.277344 139.578125 C 358.277344 139.578125 358.039062 139.816406 358.039062 139.816406 C 352.304688 147.925781 351.113281 157.945312 354.457031 166.535156 C 355.890625 170.113281 404.382812 238.582031 428.75 272.695312 C 434.007812 279.851562 441.890625 284.382812 450.492188 285.101562 C 454.3125 281.28125 458.375 277.226562 463.152344 274.363281 Z M 463.152344 274.363281 "/>
<path style=" stroke:none;fill-rule:nonzero;fill:rgb(85.099792%,85.099792%,85.099792%);fill-opacity:1;" d="M 118.910156 272.933594 C 117.234375 271.980469 115.800781 271.023438 114.128906 270.070312 C 111.742188 261.722656 113.652344 251.460938 119.148438 242.398438 C 119.148438 242.398438 177.914062 136.953125 183.648438 132.660156 C 196.308594 123.117188 214.226562 125.503906 223.78125 138.144531 C 223.78125 138.144531 224.019531 138.386719 224.019531 138.386719 C 229.753906 146.496094 230.949219 156.515625 227.605469 165.105469 C 226.171875 168.683594 177.675781 237.148438 153.308594 271.261719 C 148.054688 278.421875 140.167969 282.953125 131.570312 283.667969 C 127.984375 280.089844 123.6875 276.035156 118.910156 272.933594 Z M 118.910156 272.933594 "/>
<path style=" stroke:none;fill-rule:nonzero;fill:rgb(85.099792%,85.099792%,85.099792%);fill-opacity:1;" d="M 400.324219 140.769531 L 371.179688 291.0625 L 226.171875 291.0625 L 194.636719 141.246094 C 193.679688 134.089844 199.175781 127.648438 206.582031 127.648438 L 388.617188 127.648438 C 395.546875 127.648438 401.039062 133.613281 400.324219 140.769531 Z M 400.324219 140.769531 "/>
<path style=" stroke:none;fill-rule:nonzero;fill:rgb(12.548828%,38.42926%,66.268921%);fill-opacity:1;" d="M 269.171875 100.691406 C 309.066406 115.960938 317.90625 122.164062 331.523438 173.453125 L 405.578125 99.023438 C 353.976562 85.664062 347.765625 77.074219 332.238281 37.234375 Z M 269.171875 100.691406 "/>
<path style=" stroke:none;fill-rule:nonzero;fill:rgb(98.429871%,63.529968%,61.569214%);fill-opacity:1;" d="M 305.484375 69.203125 L 314.082031 138.386719 C 315.039062 146.734375 308.589844 154.128906 299.988281 154.128906 L 281.59375 154.128906 C 273.710938 154.128906 267.5 147.6875 267.5 139.816406 L 268.695312 88.765625 Z M 305.484375 69.203125 "/>
<path style=" stroke:none;fill-rule:nonzero;fill:rgb(12.548828%,38.42926%,66.268921%);fill-opacity:1;" d="M 253.882812 83.277344 C 272.992188 107.847656 309.542969 107.847656 328.417969 83.277344 C 341.316406 66.578125 341.316406 42.722656 328.417969 26.023438 C 309.304688 1.449219 272.753906 1.449219 253.882812 26.023438 C 240.742188 42.722656 240.742188 66.578125 253.882812 83.277344 Z M 253.882812 83.277344 "/>
<path style=" stroke:none;fill-rule:nonzero;fill:rgb(98.429871%,63.529968%,61.569214%);fill-opacity:1;" d="M 255.078125 71.585938 C 256.03125 89.242188 270.128906 103.792969 287.804688 105.226562 C 296.882812 105.941406 305.484375 103.316406 312.171875 98.546875 C 321.25 92.105469 326.984375 81.367188 326.984375 69.441406 C 326.984375 49.640625 310.976562 33.417969 290.910156 33.417969 C 290.195312 33.417969 289.476562 33.417969 288.523438 33.417969 C 269.171875 34.847656 253.882812 51.546875 255.078125 71.585938 Z M 255.078125 71.585938 "/>
<path style=" stroke:none;fill-rule:nonzero;fill:rgb(12.548828%,38.42926%,66.268921%);fill-opacity:1;" d="M 480.113281 326.132812 C 492.535156 347.839844 484.414062 375.035156 463.390625 386.726562 C 461.003906 388.15625 458.613281 389.113281 455.984375 390.066406 L 314.5625 447.558594 L 259.855469 466.644531 L 239.070312 473.800781 L 215.183594 431.574219 L 233.816406 420.363281 L 282.550781 390.78125 L 418.242188 310.148438 C 439.742188 297.027344 467.691406 304.183594 480.113281 326.132812 Z M 480.113281 326.132812 "/>
<path style=" stroke:none;fill-rule:nonzero;fill:rgb(0%,29.019165%,67.83905%);fill-opacity:1;" d="M 227.367188 477.855469 L 188.1875 491.453125 C 179.585938 494.554688 170.03125 490.976562 165.492188 482.867188 C 162.863281 478.332031 162.386719 473.324219 163.582031 468.792969 C 164.777344 464.257812 167.640625 459.964844 172.179688 457.339844 L 208.972656 434.914062 L 214.703125 431.335938 L 238.59375 473.5625 Z M 227.367188 477.855469 "/>
<path style=" stroke:none;fill-rule:nonzero;fill:rgb(12.548828%,38.42926%,66.268921%);fill-opacity:1;" d="M 124.402344 326.132812 C 111.980469 347.839844 120.101562 375.035156 141.125 386.726562 C 143.515625 388.15625 145.902344 389.113281 148.53125 390.066406 L 289.957031 447.558594 L 344.660156 466.644531 L 365.445312 473.800781 L 389.335938 431.574219 L 370.699219 420.363281 L 321.964844 390.78125 L 186.277344 310.148438 C 165.015625 297.027344 136.824219 304.183594 124.402344 326.132812 Z M 124.402344 326.132812 "/>
<path style=" stroke:none;fill-rule:nonzero;fill:rgb(0%,29.019165%,67.83905%);fill-opacity:1;" d="M 377.152344 477.855469 L 416.328125 491.453125 C 424.929688 494.554688 434.484375 490.976562 439.023438 482.867188 C 441.652344 478.332031 442.128906 473.324219 440.933594 468.792969 C 439.742188 464.257812 436.875 459.964844 432.335938 457.339844 L 395.546875 434.914062 L 389.8125 431.335938 L 365.921875 473.5625 Z M 377.152344 477.855469 "/>
<path style=" stroke:none;fill-rule:nonzero;fill:rgb(85.099792%,85.099792%,85.099792%);fill-opacity:1;" d="M 111.503906 257.902344 C 110.785156 273.886719 123.6875 287.007812 139.453125 287.007812 L 278.726562 287.007812 C 282.550781 287.007812 286.132812 285.339844 288.761719 282.953125 C 291.386719 280.328125 292.820312 276.988281 292.820312 272.933594 C 292.820312 266.253906 288.042969 260.527344 281.59375 259.097656 L 258.421875 254.324219 L 144.46875 231.183594 C 142.796875 230.945312 141.125 230.707031 139.453125 230.707031 C 124.878906 230.945312 112.21875 242.636719 111.503906 257.902344 Z M 111.503906 257.902344 "/>
<path style=" stroke:none;fill-rule:nonzero;fill:rgb(98.429871%,63.529968%,61.569214%);fill-opacity:1;" d="M 258.421875 254.5625 L 258.421875 287.007812 L 278.964844 287.007812 C 282.789062 287.007812 286.371094 285.339844 289 282.953125 C 291.628906 280.328125 293.0625 276.988281 293.0625 272.933594 C 293.0625 266.253906 288.28125 260.527344 281.832031 259.097656 Z M 258.421875 254.5625 "/>
<path style=" stroke:none;fill-rule:nonzero;fill:rgb(85.099792%,85.099792%,85.099792%);fill-opacity:1;" d="M 470.558594 259.097656 C 471.273438 275.082031 458.375 288.199219 442.609375 288.199219 L 303.332031 288.199219 C 299.511719 288.199219 295.925781 286.53125 293.300781 284.144531 C 290.671875 281.519531 289.238281 278.179688 289.238281 274.125 C 289.238281 267.445312 294.015625 261.722656 300.464844 260.289062 L 323.640625 255.519531 L 437.589844 232.378906 C 439.261719 232.140625 440.933594 231.902344 442.609375 231.902344 C 457.417969 232.140625 470.078125 243.828125 470.558594 259.097656 Z M 470.558594 259.097656 "/>
<path style=" stroke:none;fill-rule:nonzero;fill:rgb(98.429871%,63.529968%,61.569214%);fill-opacity:1;" d="M 323.640625 255.757812 L 323.640625 288.199219 L 303.09375 288.199219 C 299.273438 288.199219 295.6875 286.53125 293.0625 284.144531 C 290.433594 281.519531 289 278.179688 289 274.125 C 289 267.445312 293.777344 261.722656 300.226562 260.289062 Z M 323.640625 255.757812 "/>
<path style=" stroke:none;fill-rule:nonzero;fill:rgb(12.548828%,38.42926%,66.268921%);fill-opacity:1;" d="M 334.628906 182.28125 C 354.457031 215.441406 399.367188 222.121094 428.035156 196.117188 C 449.296875 177.03125 454.074219 144.824219 439.261719 120.253906 C 419.433594 87.09375 374.523438 80.414062 345.855469 106.417969 C 324.832031 125.503906 319.816406 157.707031 334.628906 182.28125 Z M 334.628906 182.28125 "/>
<path style=" stroke:none;fill-rule:nonzero;fill:rgb(0%,29.019165%,67.83905%);fill-opacity:1;" d="M 168.835938 210.429688 L 413.222656 210.429688 L 413.222656 370.503906 L 168.835938 370.503906 Z M 168.835938 210.429688 "/>
<path style=" stroke:none;fill-rule:nonzero;fill:rgb(85.099792%,85.099792%,85.099792%);fill-opacity:1;" d="M 305.722656 282.953125 C 305.722656 283.90625 305.628906 284.855469 305.441406 285.792969 C 305.253906 286.730469 304.980469 287.640625 304.613281 288.519531 C 304.246094 289.402344 303.796875 290.242188 303.265625 291.039062 C 302.734375 291.832031 302.128906 292.566406 301.453125 293.242188 C 300.777344 293.917969 300.042969 294.519531 299.246094 295.050781 C 298.449219 295.582031 297.609375 296.03125 296.726562 296.398438 C 295.84375 296.761719 294.929688 297.039062 293.992188 297.226562 C 293.054688 297.410156 292.105469 297.503906 291.148438 297.503906 C 290.191406 297.503906 289.246094 297.410156 288.308594 297.226562 C 287.367188 297.039062 286.457031 296.761719 285.574219 296.398438 C 284.6875 296.03125 283.847656 295.582031 283.054688 295.050781 C 282.257812 294.519531 281.523438 293.917969 280.84375 293.242188 C 280.167969 292.566406 279.566406 291.832031 279.03125 291.039062 C 278.5 290.242188 278.050781 289.402344 277.6875 288.519531 C 277.320312 287.640625 277.042969 286.730469 276.855469 285.792969 C 276.671875 284.855469 276.578125 283.90625 276.578125 282.953125 C 276.578125 281.996094 276.671875 281.050781 276.855469 280.113281 C 277.042969 279.175781 277.320312 278.265625 277.6875 277.382812 C 278.050781 276.5 278.5 275.664062 279.03125 274.867188 C 279.566406 274.074219 280.167969 273.339844 280.84375 272.664062 C 281.523438 271.988281 282.257812 271.382812 283.054688 270.851562 C 283.847656 270.320312 284.6875 269.875 285.574219 269.507812 C 286.457031 269.140625 287.367188 268.867188 288.308594 268.679688 C 289.246094 268.492188 290.191406 268.402344 291.148438 268.402344 C 292.105469 268.402344 293.054688 268.492188 293.992188 268.679688 C 294.929688 268.867188 295.84375 269.140625 296.726562 269.507812 C 297.609375 269.875 298.449219 270.320312 299.246094 270.851562 C 300.042969 271.382812 300.777344 271.988281 301.453125 272.664062 C 302.128906 273.339844 302.734375 274.074219 303.265625 274.867188 C 303.796875 275.664062 304.246094 276.5 304.613281 277.382812 C 304.980469 278.265625 305.253906 279.175781 305.441406 280.113281 C 305.628906 281.050781 305.722656 281.996094 305.722656 282.953125 Z M 305.722656 282.953125 "/>
</g>
</svg>
